<svg width="14" height="10" viewBox="0 0 14 10" fill="none" xmlns="http://www.w3.org/2000/svg">
<rect x="0.25" y="0.25" width="13.5" height="9.5" rx="1.75" fill="white" stroke="#F5F5F5" stroke-width="0.5"/>
<mask id="mask0_202_6720" style="mask-type:alpha" maskUnits="userSpaceOnUse" x="0" y="0" width="14" height="10">
<rect x="0.25" y="0.25" width="13.5" height="9.5" rx="1.75" fill="white" stroke="white" stroke-width="0.5"/>
</mask>
<g mask="url(#mask0_202_6720)">
<path fill-rule="evenodd" clip-rule="evenodd" d="M0 3.33333H14V0H0V3.33333Z" fill="#38BB56"/>
<path fill-rule="evenodd" clip-rule="evenodd" d="M0 10H14V6.66667H0V10Z" fill="#DE1B27"/>
<path fill-rule="evenodd" clip-rule="evenodd" d="M1.00002 2.66667C0.815925 2.66667 0.666687 2.81591 0.666687 3.00001C0.666687 3.1841 0.815925 3.33334 1.00002 3.33334C1.18412 3.33334 1.33335 3.1841 1.33335 3.00001C1.33335 2.81591 1.18412 2.66667 1.00002 2.66667ZM2.33335 2.66667C2.14926 2.66667 2.00002 2.81591 2.00002 3.00001C2.00002 3.1841 2.14926 3.33334 2.33335 3.33334C2.51745 3.33334 2.66669 3.1841 2.66669 3.00001C2.66669 2.81591 2.51745 2.66667 2.33335 2.66667ZM3.33335 3.00001C3.33335 2.81591 3.48259 2.66667 3.66669 2.66667C3.85078 2.66667 4.00002 2.81591 4.00002 3.00001C4.00002 3.1841 3.85078 3.33334 3.66669 3.33334C3.48259 3.33334 3.33335 3.1841 3.33335 3.00001ZM5.00002 2.66667C4.81593 2.66667 4.66669 2.81591 4.66669 3.00001C4.66669 3.1841 4.81593 3.33334 5.00002 3.33334C5.18412 3.33334 5.33335 3.1841 5.33335 3.00001C5.33335 2.81591 5.18412 2.66667 5.00002 2.66667ZM6.00002 3.00001C6.00002 2.81591 6.14926 2.66667 6.33335 2.66667C6.51745 2.66667 6.66669 2.81591 6.66669 3.00001C6.66669 3.1841 6.51745 3.33334 6.33335 3.33334C6.14926 3.33334 6.00002 3.1841 6.00002 3.00001ZM7.66669 2.66667C7.48259 2.66667 7.33335 2.81591 7.33335 3.00001C7.33335 3.1841 7.48259 3.33334 7.66669 3.33334C7.85078 3.33334 8.00002 3.1841 8.00002 3.00001C8.00002 2.81591 7.85078 2.66667 7.66669 2.66667ZM8.66669 3.00001C8.66669 2.81591 8.81593 2.66667 9.00002 2.66667C9.18411 2.66667 9.33335 2.81591 9.33335 3.00001C9.33335 3.1841 9.18411 3.33334 9.00002 3.33334C8.81593 3.33334 8.66669 3.1841 8.66669 3.00001ZM10.3334 2.66667C10.1493 2.66667 10 2.81591 10 3.00001C10 3.1841 10.1493 3.33334 10.3334 3.33334C10.5174 3.33334 10.6667 3.1841 10.6667 3.00001C10.6667 2.81591 10.5174 2.66667 10.3334 2.66667ZM11.3334 3.00001C11.3334 2.81591 11.4826 2.66667 11.6667 2.66667C11.8508 2.66667 12 2.81591 12 3.00001C12 3.1841 11.8508 3.33334 11.6667 3.33334C11.4826 3.33334 11.3334 3.1841 11.3334 3.00001ZM13 2.66667C12.8159 2.66667 12.6667 2.81591 12.6667 3.00001C12.6667 3.1841 12.8159 3.33334 13 3.33334C13.1841 3.33334 13.3334 3.1841 13.3334 3.00001C13.3334 2.81591 13.1841 2.66667 13 2.66667ZM0.666687 7C0.666687 6.81591 0.815926 6.66667 1.00002 6.66667C1.18412 6.66667 1.33335 6.81591 1.33335 7C1.33335 7.1841 1.18412 7.33334 1.00002 7.33334C0.815926 7.33334 0.666687 7.1841 0.666687 7ZM2.33335 6.66667C2.14926 6.66667 2.00002 6.81591 2.00002 7C2.00002 7.1841 2.14926 7.33334 2.33335 7.33334C2.51745 7.33334 2.66669 7.1841 2.66669 7C2.66669 6.81591 2.51745 6.66667 2.33335 6.66667ZM3.33335 7C3.33335 6.81591 3.48259 6.66667 3.66669 6.66667C3.85078 6.66667 4.00002 6.81591 4.00002 7C4.00002 7.1841 3.85078 7.33334 3.66669 7.33334C3.48259 7.33334 3.33335 7.1841 3.33335 7ZM5.00002 6.66667C4.81593 6.66667 4.66669 6.81591 4.66669 7C4.66669 7.1841 4.81593 7.33334 5.00002 7.33334C5.18411 7.33334 5.33335 7.1841 5.33335 7C5.33335 6.81591 5.18411 6.66667 5.00002 6.66667ZM6.00002 7C6.00002 6.81591 6.14926 6.66667 6.33335 6.66667C6.51745 6.66667 6.66669 6.81591 6.66669 7C6.66669 7.1841 6.51745 7.33334 6.33335 7.33334C6.14926 7.33334 6.00002 7.1841 6.00002 7ZM7.66669 6.66667C7.48259 6.66667 7.33335 6.81591 7.33335 7C7.33335 7.1841 7.48259 7.33334 7.66669 7.33334C7.85078 7.33334 8.00002 7.1841 8.00002 7C8.00002 6.81591 7.85078 6.66667 7.66669 6.66667ZM8.66669 7C8.66669 6.81591 8.81593 6.66667 9.00002 6.66667C9.18411 6.66667 9.33335 6.81591 9.33335 7C9.33335 7.1841 9.18411 7.33334 9.00002 7.33334C8.81593 7.33334 8.66669 7.1841 8.66669 7ZM10.3334 6.66667C10.1493 6.66667 10 6.81591 10 7C10 7.1841 10.1493 7.33334 10.3334 7.33334C10.5174 7.33334 10.6667 7.1841 10.6667 7C10.6667 6.81591 10.5174 6.66667 10.3334 6.66667ZM11.3334 7C11.3334 6.81591 11.4826 6.66667 11.6667 6.66667C11.8508 6.66667 12 6.81591 12 7C12 7.1841 11.8508 7.33334 11.6667 7.33334C11.4826 7.33334 11.3334 7.1841 11.3334 7ZM13 6.66667C12.8159 6.66667 12.6667 6.81591 12.6667 7C12.6667 7.1841 12.8159 7.33334 13 7.33334C13.1841 7.33334 13.3334 7.1841 13.3334 7C13.3334 6.81591 13.1841 6.66667 13 6.66667Z" fill="white" fill-opacity="0.5"/>
<mask id="path-6-inside-1_202_6720" fill="white">
<path fill-rule="evenodd" clip-rule="evenodd" d="M6.32676 4.26057C6.12599 4.44347 6 4.70702 6 5C6 5.55229 6.44772 6 7 6C7.55228 6 8 5.55229 8 5C8 4.71255 7.87872 4.45343 7.68453 4.27102"/>
</mask>
<path d="M5.87779 3.76775C5.5442 4.07166 5.33333 4.51168 5.33333 5H6.66667C6.66667 4.90237 6.70779 4.81528 6.77572 4.75339L5.87779 3.76775ZM5.33333 5C5.33333 5.92048 6.07953 6.66667 7 6.66667V5.33334C6.81591 5.33334 6.66667 5.1841 6.66667 5H5.33333ZM7 6.66667C7.92047 6.66667 8.66667 5.92048 8.66667 5H7.33333C7.33333 5.1841 7.18409 5.33334 7 5.33334V6.66667ZM8.66667 5C8.66667 4.52096 8.4637 4.08827 8.14098 3.78511L7.22808 4.75692C7.29373 4.81859 7.33333 4.90414 7.33333 5H8.66667Z" fill="#D80915" mask="url(#path-6-inside-1_202_6720)"/>
<rect x="6.66669" y="4.66667" width="0.666667" height="1.33333" rx="0.333333" fill="#D80915"/>
</g>
</svg>
