<svg width="14" height="10" viewBox="0 0 14 10" fill="none" xmlns="http://www.w3.org/2000/svg">
<rect width="14" height="10" rx="2" fill="white"/>
<mask id="mask0_202_1732" style="mask-type:alpha" maskUnits="userSpaceOnUse" x="0" y="0" width="14" height="10">
<rect width="14" height="10" rx="2" fill="white"/>
</mask>
<g mask="url(#mask0_202_1732)">
<path fill-rule="evenodd" clip-rule="evenodd" d="M14 0H0V0.666667H14V0ZM14 1.33333H0V2H14V1.33333ZM0 2.66667H14V3.33333H0V2.66667ZM14 4H0V4.66667H14V4ZM0 5.33333H14V6H0V5.33333ZM14 6.66667H0V7.33333H14V6.66667ZM0 8H14V8.66667H0V8ZM14 9.33333H0V10H14V9.33333Z" fill="#D02F44"/>
<rect width="6" height="4.66667" fill="#46467F"/>
<g filter="url(#filter0_d_202_1732)">
<path fill-rule="evenodd" clip-rule="evenodd" d="M1.33335 1.00001C1.33335 1.1841 1.18412 1.33334 1.00002 1.33334C0.815925 1.33334 0.666687 1.1841 0.666687 1.00001C0.666687 0.81591 0.815925 0.666672 1.00002 0.666672C1.18412 0.666672 1.33335 0.81591 1.33335 1.00001ZM2.66669 1.00001C2.66669 1.1841 2.51745 1.33334 2.33335 1.33334C2.14926 1.33334 2.00002 1.1841 2.00002 1.00001C2.00002 0.81591 2.14926 0.666672 2.33335 0.666672C2.51745 0.666672 2.66669 0.81591 2.66669 1.00001ZM3.66669 1.33334C3.85078 1.33334 4.00002 1.1841 4.00002 1.00001C4.00002 0.81591 3.85078 0.666672 3.66669 0.666672C3.48259 0.666672 3.33335 0.81591 3.33335 1.00001C3.33335 1.1841 3.48259 1.33334 3.66669 1.33334ZM5.33335 1.00001C5.33335 1.1841 5.18412 1.33334 5.00002 1.33334C4.81593 1.33334 4.66669 1.1841 4.66669 1.00001C4.66669 0.81591 4.81593 0.666672 5.00002 0.666672C5.18412 0.666672 5.33335 0.81591 5.33335 1.00001ZM1.66669 2.00001C1.85078 2.00001 2.00002 1.85077 2.00002 1.66667C2.00002 1.48258 1.85078 1.33334 1.66669 1.33334C1.48259 1.33334 1.33335 1.48258 1.33335 1.66667C1.33335 1.85077 1.48259 2.00001 1.66669 2.00001ZM3.33335 1.66667C3.33335 1.85077 3.18412 2.00001 3.00002 2.00001C2.81593 2.00001 2.66669 1.85077 2.66669 1.66667C2.66669 1.48258 2.81593 1.33334 3.00002 1.33334C3.18412 1.33334 3.33335 1.48258 3.33335 1.66667ZM4.33335 2.00001C4.51745 2.00001 4.66669 1.85077 4.66669 1.66667C4.66669 1.48258 4.51745 1.33334 4.33335 1.33334C4.14926 1.33334 4.00002 1.48258 4.00002 1.66667C4.00002 1.85077 4.14926 2.00001 4.33335 2.00001ZM5.33335 2.33334C5.33335 2.51743 5.18412 2.66667 5.00002 2.66667C4.81593 2.66667 4.66669 2.51743 4.66669 2.33334C4.66669 2.14924 4.81593 2.00001 5.00002 2.00001C5.18412 2.00001 5.33335 2.14924 5.33335 2.33334ZM3.66669 2.66667C3.85078 2.66667 4.00002 2.51743 4.00002 2.33334C4.00002 2.14924 3.85078 2.00001 3.66669 2.00001C3.48259 2.00001 3.33335 2.14924 3.33335 2.33334C3.33335 2.51743 3.48259 2.66667 3.66669 2.66667ZM2.66669 2.33334C2.66669 2.51743 2.51745 2.66667 2.33335 2.66667C2.14926 2.66667 2.00002 2.51743 2.00002 2.33334C2.00002 2.14924 2.14926 2.00001 2.33335 2.00001C2.51745 2.00001 2.66669 2.14924 2.66669 2.33334ZM1.00002 2.66667C1.18412 2.66667 1.33335 2.51743 1.33335 2.33334C1.33335 2.14924 1.18412 2.00001 1.00002 2.00001C0.815925 2.00001 0.666687 2.14924 0.666687 2.33334C0.666687 2.51743 0.815925 2.66667 1.00002 2.66667ZM2.00002 3.00001C2.00002 3.1841 1.85078 3.33334 1.66669 3.33334C1.48259 3.33334 1.33335 3.1841 1.33335 3.00001C1.33335 2.81591 1.48259 2.66667 1.66669 2.66667C1.85078 2.66667 2.00002 2.81591 2.00002 3.00001ZM3.00002 3.33334C3.18412 3.33334 3.33335 3.1841 3.33335 3.00001C3.33335 2.81591 3.18412 2.66667 3.00002 2.66667C2.81593 2.66667 2.66669 2.81591 2.66669 3.00001C2.66669 3.1841 2.81593 3.33334 3.00002 3.33334ZM4.66669 3.00001C4.66669 3.1841 4.51745 3.33334 4.33335 3.33334C4.14926 3.33334 4.00002 3.1841 4.00002 3.00001C4.00002 2.81591 4.14926 2.66667 4.33335 2.66667C4.51745 2.66667 4.66669 2.81591 4.66669 3.00001ZM5.00002 4.00001C5.18412 4.00001 5.33335 3.85077 5.33335 3.66667C5.33335 3.48258 5.18412 3.33334 5.00002 3.33334C4.81593 3.33334 4.66669 3.48258 4.66669 3.66667C4.66669 3.85077 4.81593 4.00001 5.00002 4.00001ZM4.00002 3.66667C4.00002 3.85077 3.85078 4.00001 3.66669 4.00001C3.48259 4.00001 3.33335 3.85077 3.33335 3.66667C3.33335 3.48258 3.48259 3.33334 3.66669 3.33334C3.85078 3.33334 4.00002 3.48258 4.00002 3.66667ZM2.33335 4.00001C2.51745 4.00001 2.66669 3.85077 2.66669 3.66667C2.66669 3.48258 2.51745 3.33334 2.33335 3.33334C2.14926 3.33334 2.00002 3.48258 2.00002 3.66667C2.00002 3.85077 2.14926 4.00001 2.33335 4.00001ZM1.33335 3.66667C1.33335 3.85077 1.18412 4.00001 1.00002 4.00001C0.815925 4.00001 0.666687 3.85077 0.666687 3.66667C0.666687 3.48258 0.815925 3.33334 1.00002 3.33334C1.18412 3.33334 1.33335 3.48258 1.33335 3.66667Z" fill="url(#paint0_linear_202_1732)"/>
</g>
</g>
<defs>
<filter id="filter0_d_202_1732" x="0.666687" y="0.666672" width="4.66669" height="4.33333" filterUnits="userSpaceOnUse" color-interpolation-filters="sRGB">
<feFlood flood-opacity="0" result="BackgroundImageFix"/>
<feColorMatrix in="SourceAlpha" type="matrix" values="0 0 0 0 0 0 0 0 0 0 0 0 0 0 0 0 0 0 127 0" result="hardAlpha"/>
<feOffset dy="1"/>
<feColorMatrix type="matrix" values="0 0 0 0 0 0 0 0 0 0 0 0 0 0 0 0 0 0 0.06 0"/>
<feBlend mode="normal" in2="BackgroundImageFix" result="effect1_dropShadow_202_1732"/>
<feBlend mode="normal" in="SourceGraphic" in2="effect1_dropShadow_202_1732" result="shape"/>
</filter>
<linearGradient id="paint0_linear_202_1732" x1="0.666687" y1="0.666672" x2="0.666687" y2="4.00001" gradientUnits="userSpaceOnUse">
<stop stop-color="white"/>
<stop offset="1" stop-color="#F0F0F0"/>
</linearGradient>
</defs>
</svg>
