<svg width="14" height="10" viewBox="0 0 14 10" fill="none" xmlns="http://www.w3.org/2000/svg">
<rect x="0.25" y="0.25" width="13.5" height="9.5" rx="1.75" fill="white" stroke="#F5F5F5" stroke-width="0.5"/>
<mask id="mask0_202_594" style="mask-type:alpha" maskUnits="userSpaceOnUse" x="0" y="0" width="14" height="10">
<rect x="0.25" y="0.25" width="13.5" height="9.5" rx="1.75" fill="white" stroke="white" stroke-width="0.5"/>
</mask>
<g mask="url(#mask0_202_594)">
<path fill-rule="evenodd" clip-rule="evenodd" d="M0 10H14V5H0V10Z" fill="#38BB56"/>
<path d="M10.5 2.95771C10.319 2.39991 9.82976 2 9.25439 2H8.12236C7.39297 2 6.80168 2.64238 6.80168 3.43479C6.80168 3.69368 6.86512 3.94249 6.97553 4.15218C6.55516 4.14844 6.16611 4.15533 5.92123 4.15218C5.92123 3.59882 5.92123 2.89392 5.92123 2.74643L5.97324 2.68993C6.20671 2.43628 6.12885 2.01356 6.12885 2.01356C6.12885 2.01356 5.73979 1.92902 5.50632 2.18266L5.23422 2.47826H4.93073C4.26211 2.47826 3.72012 3.06711 3.72012 3.79347H4.60057V4.86956C4.60057 5.02696 4.62978 5.17689 4.68256 5.31345L4.38045 5.58695H3.94023V5.10868H3.5V6.06521H5.481V7.02174H5.04078V7.5H5.92123V6.54347L6.32475 6.01739H7.27859L7.68211 6.54347V7.02174H7.24189V7.5H9.00277V4.86954C9.00277 4.47335 9.29841 4.15215 9.66309 4.15215C9.67247 4.15215 9.68176 4.15252 9.69106 4.15293C9.67282 4.07627 9.66309 3.9959 9.66309 3.91303C9.66313 3.40065 10.034 2.98239 10.5 2.95771ZM8.12236 7.02171V6.01736H8.15904L8.56256 6.54345V7.02171H8.12236Z" fill="#DE1B27"/>
</g>
</svg>
