<svg width="14" height="10" viewBox="0 0 14 10" fill="none" xmlns="http://www.w3.org/2000/svg">
<rect width="14" height="10" rx="2" fill="white"/>
<mask id="mask0_202_7057" style="mask-type:alpha" maskUnits="userSpaceOnUse" x="0" y="0" width="14" height="10">
<rect width="14" height="10" rx="2" fill="white"/>
</mask>
<g mask="url(#mask0_202_7057)">
<rect width="14" height="10" fill="#128C4B"/>
<path fill-rule="evenodd" clip-rule="evenodd" d="M3.33331 6H8.66665V5.74536C8.66665 5.40291 9.02702 5.18019 9.33331 5.33333V6H10.2222C10.4677 6 10.6666 6.19898 10.6666 6.44444C10.6666 6.93536 10.2687 7.33333 9.77776 7.33333H9.33331C8.96512 7.33333 8.66665 7.03486 8.66665 6.66667H4.27612C4.09931 6.66667 3.92974 6.59643 3.80472 6.4714L3.33331 6Z" fill="white"/>
<path fill-rule="evenodd" clip-rule="evenodd" d="M3.33331 4.13808C3.33331 4.04967 3.36843 3.96489 3.43094 3.90237C3.56112 3.7722 3.56112 3.56114 3.43094 3.43097C3.36843 3.36846 3.33331 3.28367 3.33331 3.19527V3.00001C3.33331 2.81591 3.48255 2.66667 3.66665 2.66667H3.87266C3.94298 2.66667 3.99998 2.72368 3.99998 2.79399C3.99998 2.92835 4.1811 2.9711 4.24118 2.85093L4.29087 2.75155C4.31688 2.69953 4.37005 2.66667 4.42821 2.66667H5.16665C5.25869 2.66667 5.33331 2.74129 5.33331 2.83334C5.33331 2.92539 5.25869 3.00001 5.16665 3.00001H4.83331C4.74127 3.00001 4.66665 3.07462 4.66665 3.16667C4.66665 3.25872 4.74127 3.33334 4.83331 3.33334H4.99998C5.18407 3.33334 5.33331 3.48258 5.33331 3.66667V4.33334C5.33331 4.51743 5.18407 4.66667 4.99998 4.66667C4.81588 4.66667 4.66665 4.51743 4.66665 4.33334V4.16667C4.66665 4.07462 4.74127 4.00001 4.83331 4.00001C4.92536 4.00001 4.99998 3.92539 4.99998 3.83334C4.99998 3.74129 4.92536 3.66667 4.83331 3.66667H4.66665C4.48255 3.66667 4.33331 3.81591 4.33331 4.00001V4.50001C4.33331 4.59205 4.25869 4.66667 4.16665 4.66667C4.0746 4.66667 3.99998 4.59205 3.99998 4.50001V4.16667C3.99998 4.07462 3.92536 4.00001 3.83331 4.00001C3.74127 4.00001 3.66665 4.07462 3.66665 4.16667V4.50001C3.66665 4.59205 3.59203 4.66667 3.49998 4.66667C3.40793 4.66667 3.33331 4.59205 3.33331 4.50001V4.13808Z" fill="white"/>
<path fill-rule="evenodd" clip-rule="evenodd" d="M8.66669 4.13808C8.66669 4.04967 8.70181 3.96489 8.76432 3.90237C8.89449 3.7722 8.89449 3.56114 8.76432 3.43097C8.70181 3.36846 8.66669 3.28367 8.66669 3.19527V3.00001C8.66669 2.81591 8.81593 2.66667 9.00002 2.66667H9.20603C9.27635 2.66667 9.33335 2.72368 9.33335 2.79399C9.33335 2.92835 9.51447 2.9711 9.57456 2.85093L9.62425 2.75155C9.65026 2.69953 9.70343 2.66667 9.76159 2.66667H10.5C10.5921 2.66667 10.6667 2.74129 10.6667 2.83334C10.6667 2.92539 10.5921 3.00001 10.5 3.00001H10.1667C10.0746 3.00001 10 3.07462 10 3.16667C10 3.25872 10.0746 3.33334 10.1667 3.33334H10.3334C10.5174 3.33334 10.6667 3.48258 10.6667 3.66667V4.33334C10.6667 4.51743 10.5174 4.66667 10.3334 4.66667C10.1493 4.66667 10 4.51743 10 4.33334V4.16667C10 4.07462 10.0746 4.00001 10.1667 4.00001C10.2587 4.00001 10.3334 3.92539 10.3334 3.83334C10.3334 3.74129 10.2587 3.66667 10.1667 3.66667H10C9.81593 3.66667 9.66669 3.81591 9.66669 4.00001V4.50001C9.66669 4.59205 9.59207 4.66667 9.50002 4.66667C9.40797 4.66667 9.33335 4.59205 9.33335 4.50001V4.16667C9.33335 4.07462 9.25873 4.00001 9.16669 4.00001C9.07464 4.00001 9.00002 4.07462 9.00002 4.16667V4.50001C9.00002 4.59205 8.9254 4.66667 8.83335 4.66667C8.74131 4.66667 8.66669 4.59205 8.66669 4.50001V4.13808Z" fill="white"/>
<path fill-rule="evenodd" clip-rule="evenodd" d="M8 3.16511C8 3.25802 7.94792 3.38542 7.87966 3.45368L7.78701 3.54633C7.72055 3.61279 7.71875 3.71876 7.78701 3.78701L7.87966 3.87966C7.94612 3.94613 8 4.07135 8 4.16823V4.49844C8 4.59135 7.92866 4.66667 7.83177 4.66667H7.50156C7.40865 4.66667 7.33333 4.59533 7.33333 4.49844V4.16823C7.33333 4.07532 7.30257 4.06153 7.25602 4.15463L7.07731 4.51205C7.03461 4.59745 6.92153 4.66667 6.83487 4.66667H6.16513C6.07393 4.66667 6 4.58936 6 4.50001C6 4.40796 6.07135 4.33334 6.16823 4.33334H6.49844C6.59135 4.33334 6.66667 4.25603 6.66667 4.16667C6.66667 4.07462 6.59532 4.00001 6.49844 4.00001H6.16823C6.07532 4.00001 6 3.92832 6 3.83651V2.83016C6 2.73987 6.07135 2.66667 6.16823 2.66667H6.49844C6.59135 2.66667 6.66667 2.73802 6.66667 2.8349V3.16511C6.66667 3.25802 6.58936 3.33334 6.5 3.33334C6.40795 3.33334 6.33333 3.41065 6.33333 3.50001C6.33333 3.59205 6.40468 3.66667 6.50156 3.66667H6.83177C6.92468 3.66667 7 3.5882 7 3.50154V2.8318C7 2.7406 7.07731 2.66667 7.16667 2.66667C7.25871 2.66667 7.33333 2.73802 7.33333 2.8349V3.16511C7.33333 3.25802 7.41064 3.33334 7.5 3.33334C7.59205 3.33334 7.66667 3.26199 7.66667 3.16511V2.8349C7.66667 2.74199 7.74398 2.66667 7.83333 2.66667C7.92538 2.66667 8 2.73802 8 2.8349V3.16511Z" fill="white"/>
</g>
</svg>
