<svg width="14" height="10" viewBox="0 0 14 10" fill="none" xmlns="http://www.w3.org/2000/svg">
<rect x="0.25" y="0.25" width="13.5" height="9.5" rx="1.75" fill="white" stroke="#F5F5F5" stroke-width="0.5"/>
<mask id="mask0_202_1682" style="mask-type:alpha" maskUnits="userSpaceOnUse" x="0" y="0" width="14" height="10">
<rect x="0.25" y="0.25" width="13.5" height="9.5" rx="1.75" fill="white" stroke="white" stroke-width="0.5"/>
</mask>
<g mask="url(#mask0_202_1682)">
<rect x="9.33331" width="4.66667" height="10" fill="#E3283E"/>
<path fill-rule="evenodd" clip-rule="evenodd" d="M0 10H4.66667V0H0V10Z" fill="#128A60"/>
<path d="M6.33335 4.66667C6.33335 4.29848 6.03488 4.00001 5.66669 4.00001C5.2985 4.00001 5.00002 4.29848 5.00002 4.66667H6.33335ZM5.99724 6.39737C6.31571 6.58216 6.72367 6.47379 6.90845 6.15533C7.09324 5.83686 6.98487 5.4289 6.66641 5.24412L5.99724 6.39737ZM7.35825 5.22911C7.04807 5.42749 6.95744 5.83976 7.15582 6.14993C7.3542 6.46011 7.76647 6.55074 8.07664 6.35236L7.35825 5.22911ZM9.00002 4.66667C9.00002 4.29848 8.70154 4.00001 8.33335 4.00001C7.96516 4.00001 7.66669 4.29848 7.66669 4.66667H9.00002ZM5.00002 4.66667C5.00002 5.40684 5.40245 6.05225 5.99724 6.39737L6.66641 5.24412C6.46582 5.12773 6.33335 4.91228 6.33335 4.66667H5.00002ZM8.07664 6.35236C8.63049 5.99814 9.00002 5.37578 9.00002 4.66667H7.66669C7.66669 4.9021 7.54515 5.10957 7.35825 5.22911L8.07664 6.35236Z" fill="#8C9157"/>
<path fill-rule="evenodd" clip-rule="evenodd" d="M6.99998 5.33333C7.36817 5.33333 7.66665 4.88561 7.66665 4.33333C7.66665 3.78104 7.36817 3.33333 6.99998 3.33333C6.63179 3.33333 6.33331 3.78104 6.33331 4.33333C6.33331 4.88561 6.63179 5.33333 6.99998 5.33333Z" fill="#C59262"/>
</g>
</svg>
