<svg width="14" height="10" viewBox="0 0 14 10" fill="none" xmlns="http://www.w3.org/2000/svg">
<rect x="0.25" y="0.25" width="13.5" height="9.5" rx="1.75" fill="white" stroke="#F5F5F5" stroke-width="0.5"/>
<mask id="mask0_202_381" style="mask-type:alpha" maskUnits="userSpaceOnUse" x="0" y="0" width="14" height="10">
<rect x="0.25" y="0.25" width="13.5" height="9.5" rx="1.75" fill="white" stroke="white" stroke-width="0.5"/>
</mask>
<g mask="url(#mask0_202_381)">
<path fill-rule="evenodd" clip-rule="evenodd" d="M6.99996 7.33334C8.28862 7.33334 9.33329 6.28867 9.33329 5C9.33329 3.71134 8.28862 2.66667 6.99996 2.66667C5.71129 2.66667 4.66663 3.71134 4.66663 5C4.66663 6.28867 5.71129 7.33334 6.99996 7.33334Z" fill="#E01B41"/>
<mask id="mask1_202_381" style="mask-type:alpha" maskUnits="userSpaceOnUse" x="4" y="2" width="6" height="6">
<path fill-rule="evenodd" clip-rule="evenodd" d="M6.99996 7.33334C8.28862 7.33334 9.33329 6.28867 9.33329 5C9.33329 3.71134 8.28862 2.66667 6.99996 2.66667C5.71129 2.66667 4.66663 3.71134 4.66663 5C4.66663 6.28867 5.71129 7.33334 6.99996 7.33334Z" fill="white"/>
</mask>
<g mask="url(#mask1_202_381)">
<path fill-rule="evenodd" clip-rule="evenodd" d="M4.66666 5.33334C5.33332 5.95834 6.33332 6.33334 6.99999 5.33334C7.66666 4.33334 8.99999 4.33334 9.33332 5.33334C9.66666 6.33334 9.33332 7.33334 9.33332 7.33334H4.66666C4.66666 7.33334 3.99999 4.70834 4.66666 5.33334Z" fill="#0E4B9C"/>
</g>
<path opacity="0.75" fill-rule="evenodd" clip-rule="evenodd" d="M10.5415 1.80063C10.3821 1.89268 10.3274 2.09655 10.4195 2.25598L11.0862 3.41068C11.1782 3.57011 11.3821 3.62473 11.5415 3.53268C11.7009 3.44064 11.7556 3.23677 11.6635 3.07734L10.9968 1.92264C10.9048 1.76321 10.7009 1.70859 10.5415 1.80063ZM9.67547 2.30063C9.51604 2.39268 9.46141 2.59655 9.55346 2.75598L10.2201 3.91068C10.3122 4.07011 10.516 4.12473 10.6755 4.03268C10.8349 3.94064 10.8895 3.73677 10.7975 3.57734L10.1308 2.42264C10.0388 2.26321 9.8349 2.20859 9.67547 2.30063ZM2.33658 6.92264C2.24454 6.76321 2.29916 6.55935 2.45859 6.4673C2.61802 6.37525 2.82189 6.42988 2.91393 6.58931L3.5806 7.74401C3.67265 7.90344 3.61802 8.1073 3.45859 8.19935C3.29916 8.2914 3.0953 8.23677 3.00325 8.07734L2.33658 6.92264ZM3.32462 5.9673C3.16519 6.05935 3.11056 6.26321 3.20261 6.42264L3.86928 7.57734C3.96132 7.73677 4.16519 7.7914 4.32462 7.69935C4.48405 7.6073 4.53867 7.40344 4.44663 7.24401L3.77996 6.08931C3.68791 5.92988 3.48405 5.87525 3.32462 5.9673ZM10.2201 6.08931C10.3122 5.92988 10.516 5.87525 10.6755 5.9673C10.8349 6.05935 10.8895 6.26321 10.7975 6.42264L10.1308 7.57734C10.0388 7.73677 9.8349 7.7914 9.67547 7.69935C9.51604 7.6073 9.46142 7.40344 9.55346 7.24401L10.2201 6.08931ZM11.5415 6.4673C11.3821 6.37525 11.1782 6.42988 11.0862 6.58931L10.4195 7.74401C10.3274 7.90344 10.3821 8.1073 10.5415 8.19935C10.7009 8.2914 10.9048 8.23677 10.9968 8.07734L11.6635 6.92264C11.7556 6.76321 11.7009 6.55935 11.5415 6.4673ZM3.00325 1.92264C3.0953 1.76321 3.29916 1.70859 3.45859 1.80063C3.61802 1.89268 3.67265 2.09655 3.5806 2.25598L2.91393 3.41068C2.82189 3.57011 2.61802 3.62473 2.45859 3.53269C2.29916 3.44064 2.24454 3.23677 2.33658 3.07734L3.00325 1.92264ZM4.32462 2.30063C4.16519 2.20859 3.96132 2.26321 3.86928 2.42264L3.20261 3.57734C3.11056 3.73677 3.16519 3.94064 3.32462 4.03268C3.48405 4.12473 3.68791 4.07011 3.77996 3.91068L4.44663 2.75598C4.53867 2.59655 4.48405 2.39268 4.32462 2.30063Z" fill="#262626"/>
</g>
</svg>
