<svg width="14" height="10" viewBox="0 0 14 10" fill="none" xmlns="http://www.w3.org/2000/svg">
<rect x="0.25" y="0.25" width="13.5" height="9.5" rx="1.75" fill="white" stroke="#F5F5F5" stroke-width="0.5"/>
<mask id="mask0_202_1618" style="mask-type:alpha" maskUnits="userSpaceOnUse" x="0" y="0" width="14" height="10">
<rect x="0.25" y="0.25" width="13.5" height="9.5" rx="1.75" fill="white" stroke="white" stroke-width="0.5"/>
</mask>
<g mask="url(#mask0_202_1618)">
<path fill-rule="evenodd" clip-rule="evenodd" d="M14 1.33333H6.66667V2.66666H14V1.33333ZM6.66667 3.99999V5.33333H14V3.99999H6.66667ZM6.66667 6.66666L0 6.66666V7.99999H14V6.66666H6.66667ZM0 10V9.33333H14V10H0Z" fill="#0E4DC5"/>
<path fill-rule="evenodd" clip-rule="evenodd" d="M3.33337 4.66065L2.88833 5.32497L2.7756 4.53334L2.08639 4.93878L2.32831 4.17663L1.53144 4.24289L2.08007 3.66118L1.33337 3.37512L2.08007 3.08906L1.53144 2.50735L2.32831 2.5736L2.08639 1.81146L2.7756 2.21689L2.88833 1.42526L3.33337 2.08959L3.77842 1.42526L3.89114 2.21689L4.58035 1.81146L4.33844 2.5736L5.13531 2.50735L4.58667 3.08906L5.33337 3.37512L4.58667 3.66118L5.13531 4.24289L4.33844 4.17663L4.58035 4.93878L3.89114 4.53334L3.77842 5.32497L3.33337 4.66065ZM3.33337 4.64785C4.03628 4.64785 4.6061 4.07803 4.6061 3.37512C4.6061 2.67221 4.03628 2.10239 3.33337 2.10239C2.63047 2.10239 2.06065 2.67221 2.06065 3.37512C2.06065 4.07803 2.63047 4.64785 3.33337 4.64785ZM4.33337 3.33333C4.33337 3.88562 3.88566 4.33333 3.33337 4.33333C2.78109 4.33333 2.33337 3.88562 2.33337 3.33333C2.33337 2.78105 2.78109 2.33333 3.33337 2.33333C3.88566 2.33333 4.33337 2.78105 4.33337 3.33333Z" fill="#FED443"/>
</g>
</svg>
