<svg width="14" height="10" viewBox="0 0 14 10" fill="none" xmlns="http://www.w3.org/2000/svg">
<rect width="14" height="10" rx="2" fill="white"/>
<mask id="mask0_202_7911" style="mask-type:alpha" maskUnits="userSpaceOnUse" x="0" y="0" width="14" height="10">
<rect width="14" height="10" rx="2" fill="white"/>
</mask>
<g mask="url(#mask0_202_7911)">
<rect width="14" height="10" fill="#E92434"/>
<path fill-rule="evenodd" clip-rule="evenodd" d="M10 5C10 6.65685 8.65685 8 7 8C5.34315 8 4 6.65685 4 5C4 3.34315 5.34315 2 7 2C8.65685 2 10 3.34315 10 5ZM6 5C6 6.10825 6.83207 7.02216 7.90557 7.1511C7.62712 7.26846 7.32114 7.33333 7 7.33333C5.71134 7.33333 4.66667 6.28866 4.66667 5C4.66667 3.71134 5.71134 2.66667 7 2.66667C7.32114 2.66667 7.62713 2.73154 7.90557 2.8489C6.83207 2.97784 6 3.89175 6 5ZM7.56469 6.32754L8.1771 5.58505L9.0787 5.92186L8.5618 5.10998L9.16074 4.35658L8.22886 4.59731L7.69742 3.79487L7.63839 4.75552L6.711 5.01299L7.6064 5.36598L7.56469 6.32754Z" fill="white"/>
</g>
</svg>
