<svg width="14" height="10" viewBox="0 0 14 10" fill="none" xmlns="http://www.w3.org/2000/svg">
<rect width="14" height="10" rx="2" fill="white"/>
<mask id="mask0_202_7897" style="mask-type:alpha" maskUnits="userSpaceOnUse" x="0" y="0" width="14" height="10">
<rect width="14" height="10" rx="2" fill="white"/>
</mask>
<g mask="url(#mask0_202_7897)">
<rect width="14" height="10" fill="#0A17A7"/>
<path d="M0 -0.22H-0.594717L-0.143174 0.167036L2.11333 2.10119V2.55345L-0.127872 4.15431L-0.22 4.22012V4.33333V4.66667V5.0636L0.1166 4.85323L2.72976 3.22H3.26283L5.51005 4.82515C5.56605 4.86516 5.63316 4.88667 5.70199 4.88667C6.00859 4.88667 6.1497 4.50522 5.91691 4.30569L3.88667 2.56548V2.11322L5.98829 0.61206C6.1337 0.508193 6.22 0.340494 6.22 0.161794V0V-0.396934L5.8834 -0.18656L3.27024 1.44667H2.73717L0.461206 -0.179021L0.403836 -0.22H0.333333H0Z" fill="#FF2E3B" stroke="white" stroke-width="0.44"/>
<path fill-rule="evenodd" clip-rule="evenodd" d="M0 1.66667V3H2.33333V4.33333C2.33333 4.70152 2.63181 5 3 5C3.36819 5 3.66667 4.70152 3.66667 4.33333V3H5.66667C6.03486 3 6.33333 2.70152 6.33333 2.33333C6.33333 1.96514 6.03486 1.66667 5.66667 1.66667H3.66667V0H2.33333V1.66667H0Z" fill="url(#paint0_linear_202_7897)"/>
<path fill-rule="evenodd" clip-rule="evenodd" d="M0 2H2.66667V1.66667V0H3.33333V1.66667V2H6V2.66667H3.33333V3V4.66667H2.66667V3V2.66667H0V2Z" fill="url(#paint1_linear_202_7897)"/>
<path fill-rule="evenodd" clip-rule="evenodd" d="M3 8.16667L2.41221 8.47569L2.52447 7.82118L2.04894 7.35765L2.70611 7.26216L3 6.66667L3.29389 7.26216L3.95106 7.35765L3.47553 7.82118L3.58779 8.47569L3 8.16667Z" fill="white"/>
<path fill-rule="evenodd" clip-rule="evenodd" d="M9.99998 8.66667L9.52858 8.80474L9.66665 8.33334L9.52858 7.86193L9.99998 8L10.4714 7.86193L10.3333 8.33334L10.4714 8.80474L9.99998 8.66667Z" fill="white"/>
<path fill-rule="evenodd" clip-rule="evenodd" d="M9.99998 2.33333L9.52858 2.4714L9.66665 1.99999L9.52858 1.52859L9.99998 1.66666L10.4714 1.52859L10.3333 1.99999L10.4714 2.4714L9.99998 2.33333Z" fill="white"/>
<path fill-rule="evenodd" clip-rule="evenodd" d="M12 4.33333L11.5286 4.4714L11.6666 3.99999L11.5286 3.52859L12 3.66666L12.4714 3.52859L12.3333 3.99999L12.4714 4.4714L12 4.33333Z" fill="white"/>
<path fill-rule="evenodd" clip-rule="evenodd" d="M7.99998 5L7.52858 5.13807L7.66665 4.66667L7.52858 4.19526L7.99998 4.33333L8.47138 4.19526L8.33331 4.66667L8.47138 5.13807L7.99998 5Z" fill="white"/>
<path fill-rule="evenodd" clip-rule="evenodd" d="M11 5.83333L10.7643 5.90236L10.8334 5.66666L10.7643 5.43096L11 5.49999L11.2357 5.43096L11.1667 5.66666L11.2357 5.90236L11 5.83333Z" fill="white"/>
</g>
<defs>
<linearGradient id="paint0_linear_202_7897" x1="0" y1="0" x2="0" y2="5" gradientUnits="userSpaceOnUse">
<stop stop-color="white"/>
<stop offset="1" stop-color="#F0F0F0"/>
</linearGradient>
<linearGradient id="paint1_linear_202_7897" x1="0" y1="0" x2="0" y2="4.66667" gradientUnits="userSpaceOnUse">
<stop stop-color="#FF2E3B"/>
<stop offset="1" stop-color="#FC0D1B"/>
</linearGradient>
</defs>
</svg>
