<svg width="14" height="10" viewBox="0 0 14 10" fill="none" xmlns="http://www.w3.org/2000/svg">
<rect x="13.75" y="9.75" width="13.5" height="9.5" rx="1.75" transform="rotate(-180 13.75 9.75)" fill="white" stroke="#F5F5F5" stroke-width="0.5"/>
<mask id="mask0_202_1634" style="mask-type:alpha" maskUnits="userSpaceOnUse" x="0" y="0" width="14" height="10">
<rect x="13.75" y="9.75" width="13.5" height="9.5" rx="1.75" transform="rotate(-180 13.75 9.75)" fill="white" stroke="white" stroke-width="0.5"/>
</mask>
<g mask="url(#mask0_202_1634)">
<path fill-rule="evenodd" clip-rule="evenodd" d="M14 3.33334L2.91409e-07 3.33334L0 6.66667L14 6.66667L14 3.33334Z" fill="#0C47B7"/>
<path fill-rule="evenodd" clip-rule="evenodd" d="M14 -5.48363e-06L2.91409e-07 -6.70755e-06L0 3.33333L14 3.33333L14 -5.48363e-06Z" fill="#E53B35"/>
<path fill-rule="evenodd" clip-rule="evenodd" d="M5.33341 6.66668V3.33334H2.66675V6.66668C2.66675 7.40334 3.26341 8.00001 4.00008 8.00001C4.73675 8.00001 5.33341 7.40334 5.33341 6.66668Z" fill="#F93939"/>
<path fill-rule="evenodd" clip-rule="evenodd" d="M3.33341 3.33333L2.66675 2.66667C2.66675 2.66667 3.33341 2 4.00008 2C4.66675 2 5.33342 2.66667 5.33342 2.66667L4.66675 3.33333L3.33341 3.33333Z" fill="#FFDA2C"/>
<path fill-rule="evenodd" clip-rule="evenodd" d="M3.33341 4L2.66675 4.66667L4.00008 5.33333L3.33341 6.66667L4.00008 8L4.66675 6.66667L4.00008 5.33333L5.33341 4.66667L4.66675 4L4.00008 4.66667L3.33341 4Z" fill="white"/>
<path fill-rule="evenodd" clip-rule="evenodd" d="M3.33341 4L2.66675 4L2.66675 4.66667L3.33341 4ZM4.66675 4L5.33342 4L5.33342 4.66667L4.66675 4Z" fill="#FFDA2C"/>
<path fill-rule="evenodd" clip-rule="evenodd" d="M4.00004 2L3.33337 2.66667L4.00004 3.33333L4.66671 2.66667L4.00004 2Z" fill="#A75835"/>
<path fill-rule="evenodd" clip-rule="evenodd" d="M4.00008 5.33334L2.66675 6.00001L5.33342 6.00001L4.00008 5.33334Z" fill="#88605F"/>
</g>
</svg>
